<?xml version="1.0" encoding="UTF-8"?>
<svg width="30px" height="30px" viewBox="0 0 30 30" version="1.1" xmlns="http://www.w3.org/2000/svg" xmlns:xlink="http://www.w3.org/1999/xlink">
    <!-- Generator: Sketch 52.6 (67491) - http://www.bohemiancoding.com/sketch -->
    <title>Artboard</title>
    <desc>Created with Sketch.</desc>
    <g id="Artboard" stroke="none" stroke-width="1" fill="none" fill-rule="evenodd">
        <g id="mastodon" transform="translate(1.000000, 0.000000)">
            <path d="M27.9989404,9.84976237 C27.9989404,3.34183211 23.7308262,1.43368875 23.7308262,1.43368875 C19.5431291,-0.487883176 8.42047015,-0.46788317 4.2730174,1.43368875 C4.2730174,1.43368875 0.00490316666,3.34176068 0.00490316666,9.84976237 C0.00490316666,17.5962644 -0.437426983,27.2174812 7.08046999,29.2060531 C9.79399533,29.9222676 12.1258072,30.0764105 14.0018503,29.9692676 C17.4056051,29.781839 19.3151732,28.7573387 19.3151732,28.7573387 L19.2013025,26.2866952 C19.2013025,26.2866952 16.7690586,27.050124 14.0353753,26.9629811 C11.3283548,26.8691954 8.47401011,26.6684096 8.03175144,23.3475516 C7.99150712,23.0529801 7.97149218,22.74498 7.97149218,22.4169085 C13.7069874,23.8161232 18.5980666,23.0262658 19.9450005,22.86548 C23.703949,22.4169085 26.9803945,20.100265 27.3957759,17.9845502 C28.0526233,14.6502636 27.9989404,9.84976237 27.9989404,9.84976237 Z" id="Path" fill="#2B90D9"></path>
            <path d="M23.9660628,18 L20.8431343,18 L20.8431343,10.4878467 C20.8431343,7.17986629 16.5539693,7.05340097 16.5539693,10.9471267 L16.5539693,15.1070616 L13.4512741,15.1070616 L13.4512741,10.9471267 C13.4512741,7.05340097 9.16218068,7.17986629 9.16218068,10.4878467 L9.16218068,18 L6.03260312,18 C6.03260312,9.87320114 5.68413349,8.24477382 7.26568799,6.44102766 C9.00138704,4.51741993 12.6136315,4.39102562 14.2219969,6.84705162 L14.9993687,8.14493652 L15.7767405,6.84705162 C17.391898,4.37760511 21.01072,4.53076944 22.7329779,6.44102766 C24.3213245,8.25812333 23.9660628,9.87980489 23.9660628,18 Z" id="Path" fill="#FFFFFF"></path>
        </g>
    </g>
</svg>