<?xml version="1.0" encoding="UTF-8"?>
<svg viewBox="0 0 484 504" version="1.1" xmlns="http://www.w3.org/2000/svg" xmlns:xlink="http://www.w3.org/1999/xlink">
    <!-- Generator: Sketch 52.6 (67491) - http://www.bohemiancoding.com/sketch -->
    <title>Shape</title>
    <desc>Created with Sketch.</desc>
    <g id="Page-1" stroke="none" stroke-width="1" fill="none" fill-rule="evenodd">
        <g id="point-of-sale" fill="#000000" fill-rule="nonzero">
            <path d="M483.72,364.05 L483.72,128.89 C483.72,119.8666 483.61062,110.788 483.61062,101.765 C483.555933,87.054 475.35282,73.71 461.62662,67.913 C453.36882,64.4677 445.00162,65.0146 436.30662,65.0146 L378.17362,65.0146 L378.17362,25.3116 C378.17362,25.14754 378.00956,25.03816 378.00956,24.8741 C377.51737,11.2021 366.52556,0.4831 352.79856,0.2651 C351.37666,0.2651 349.90016,0.37447 348.53296,0.37447 L31.51296,0.37447 C29.65356,0.37447 27.79416,0.2651 25.93486,0.2651 C15.37986,0.319787 5.91886,6.4995 2.03686,16.3981 C-0.09594,21.8122 0.28686,27.6091 0.28686,33.2421 L0.28686,476.2621 C0.28686,477.5746 0.341548,478.8324 0.39624,480.1449 C1.38062,493.4339 12.26324,503.4969 25.55224,503.6609 C30.58344,503.715587 35.66924,503.55152 40.75524,503.55152 L335.52524,503.55152 C341.15804,503.55152 346.84524,503.71558 352.47824,503.6609 C363.41624,503.55152 373.15024,496.8797 376.75924,486.5439 C377.85304,483.4267 378.18114,480.2001 378.18114,476.9189 L378.18114,418.7859 L445.82914,418.7859 C452.06354,418.7859 457.86014,417.4734 463.54814,414.8484 C474.10314,410.0359 481.59514,399.0984 483.12614,387.7784 C484.16524,379.9581 483.7277,371.8644 483.7277,364.0444 L483.72,364.05 Z M74.49,257.46 L107.412,257.46 C116.5995,257.46 123.435,265.0069 123.818,273.866 C124.20081,282.7254 115.9977,290.272 107.412,290.272 L74.49,290.272 C65.3025,290.272 58.467,282.7251 58.084,273.866 C57.70119,265.0066 65.9043,257.46 74.49,257.46 Z M108.123,443.4 L75.201,443.4 C66.0135,443.4 59.178,435.8531 58.795,426.994 C58.412,418.1349 66.6153,410.588 75.201,410.588 L108.123,410.588 C117.3105,410.588 124.146,418.1349 124.529,426.994 C124.912,435.8531 116.7087,443.4 108.123,443.4 Z M108.123,366.838 L75.201,366.838 C66.0135,366.838 59.178,359.2911 58.795,350.432 C58.412,341.5729 66.6153,334.026 75.201,334.026 L108.123,334.026 C117.3105,334.026 124.146,341.5729 124.529,350.432 C124.912,359.2911 116.7087,366.838 108.123,366.838 Z M167.185,257.458 L200.107,257.458 C209.2945,257.458 216.13,265.0049 216.513,273.864 C216.896,282.7231 208.6927,290.27 200.107,290.27 L167.185,290.27 C157.9975,290.27 151.162,282.7231 150.779,273.864 C150.396,265.0049 158.5993,257.458 167.185,257.458 Z M200.818,443.398 L167.896,443.398 C158.7085,443.398 151.873,435.8511 151.49,426.992 C151.10719,418.1326 159.3103,410.586 167.896,410.586 L200.818,410.586 C210.0055,410.586 216.841,418.1329 217.224,426.992 C217.60681,435.8514 209.4037,443.398 200.818,443.398 Z M200.818,366.836 L167.896,366.836 C158.7085,366.836 151.873,359.2891 151.49,350.43 C151.10719,341.5706 159.3103,334.024 167.896,334.024 L200.818,334.024 C210.0055,334.024 216.841,341.5709 217.224,350.43 C217.60681,359.2894 209.4037,366.836 200.818,366.836 Z M259.88,257.456 L292.802,257.456 C301.9895,257.456 308.825,265.0029 309.208,273.862 C309.59081,282.7214 301.3877,290.268 292.802,290.268 L259.88,290.268 C250.6925,290.268 243.857,282.7211 243.474,273.862 C243.09119,265.0026 251.349,257.456 259.88,257.456 Z M293.513,443.396 L260.591,443.396 C251.4035,443.396 244.568,435.8491 244.185,426.99 C243.802,418.1309 252.0053,410.584 260.591,410.584 L293.513,410.584 C302.7005,410.584 309.536,418.1309 309.919,426.99 C310.302,435.8491 302.0987,443.396 293.513,443.396 Z M293.513,366.834 L260.591,366.834 C251.4035,366.834 244.568,359.2871 244.185,350.428 C243.802,341.5689 252.0053,334.022 260.591,334.022 L293.513,334.022 C302.7005,334.022 309.536,341.5689 309.919,350.428 C310.302,359.2871 302.0987,366.834 293.513,366.834 Z M316.372,191.234 C316.372,200.2574 310.5204,208.187 301.005,208.734 C296.0284,209.00744 290.997,208.788687 286.021,208.788687 L77.171,208.788687 C74.8194,208.788687 72.4679,208.843374 70.171,208.351187 C61.8038,206.437087 57.702,198.835587 57.702,190.851187 L57.702,86.781187 C57.702,83.554587 57.42856,80.054587 58.19419,76.882787 C59.99889,69.062487 67.10829,64.468787 74.81919,64.413787 L82.25669,64.413787 L292.74669,64.413787 L299.63729,64.413787 C308.49669,64.468474 315.33229,70.648187 316.42629,79.397787 L316.42629,191.237787 L316.372,191.234 Z M450.902,383.574 C450.902,383.574 450.79262,383.68338 450.68325,383.84744 C450.628562,384.06619 450.628562,384.28494 450.57387,384.50369 C450.628557,384.50369 450.628557,384.50369 450.57387,384.558378 C450.57387,384.667758 450.519183,384.831818 450.519183,384.941188 C450.628553,384.886501 450.737933,384.831818 450.847303,384.777128 C450.737933,384.831816 450.628553,384.886508 450.519183,384.941188 L450.464495,385.542748 C450.464495,385.323998 450.519183,385.159938 450.519183,384.941188 C450.355123,384.995876 450.191053,385.105248 450.026993,385.159938 C449.972305,385.323998 449.862933,385.488068 449.808243,385.652128 C450.026993,385.652128 450.191053,385.59744 450.409803,385.59744 C450.191053,385.59744 450.026993,385.652128 449.808243,385.70682 C449.753555,385.81619 449.698863,385.92557 449.644183,386.03494 C449.69887,385.92557 449.753553,385.81619 449.808243,385.70682 C449.644183,385.70682 449.534803,385.761507 449.370743,385.761507 C449.316055,385.816194 449.316055,385.816194 449.370743,385.761507 C449.261363,385.761507 449.206683,385.761507 449.097303,385.816194 C448.605113,386.144324 448.276993,386.363074 448.714493,385.870882 C448.605113,385.870882 448.441053,385.92557 448.331683,385.92557 C447.894183,386.08963 447.456683,386.30838 447.019183,386.47244 C447.401993,386.30838 447.730123,386.14432 448.058283,385.92557 C447.402033,386.03494 446.745783,386.08963 446.089483,386.19901 C446.581673,386.08963 447.019173,386.03495 447.511383,385.92557 C445.378583,386.03494 443.191083,385.980257 441.112983,385.980257 L378.167983,385.980257 L378.167983,97.780257 L439.362983,97.780257 C442.097383,97.780257 444.941083,97.506817 447.730183,97.670877 C447.183303,97.506817 446.636383,97.342757 446.089583,97.288067 C446.363023,97.342755 446.636463,97.342755 446.909893,97.397447 C446.800523,97.397447 446.636453,97.342759 446.527083,97.342759 C446.417713,97.342759 446.253643,97.288071 446.144273,97.288071 L446.253643,97.288071 C446.198956,97.288071 446.198956,97.178701 446.144273,97.178701 C446.636463,97.233388 447.073963,97.342761 447.566173,97.342761 C447.402113,97.342761 447.292733,97.178701 447.128673,97.124011 L447.292733,97.124011 C447.402113,97.178699 447.566173,97.233391 447.730233,97.288071 L447.78492,97.288071 L447.8943,97.288071 C447.948987,97.288071 447.948987,97.288071 448.00367,97.342759 L448.058358,97.342759 C448.113046,97.342759 448.113046,97.342759 448.167738,97.397447 L448.167738,97.342759 L448.222425,97.342759 C448.222425,97.288071 448.222425,97.233379 448.167738,97.233379 C448.167738,97.233379 448.167738,97.288066 448.222425,97.342759 C448.277113,97.342759 448.386485,97.397447 448.441175,97.452139 C448.550555,97.452139 448.659925,97.506826 448.769305,97.506826 C448.659925,97.397456 448.550555,97.342766 448.605245,97.288076 C448.605245,97.288076 448.714625,97.397456 448.878685,97.506826 C449.097435,97.506826 449.316185,97.561514 449.534935,97.616206 C449.534935,97.561518 449.589623,97.561518 449.644315,97.616206 C449.753685,97.616206 449.917755,97.670893 450.027125,97.670893 C449.972437,97.561513 449.917745,97.452143 449.863065,97.342773 C449.917752,97.452153 449.972435,97.561523 450.027125,97.670893 C450.245875,97.670893 450.409935,97.72558 450.628685,97.780273 C450.409935,97.725585 450.245875,97.725585 450.027125,97.725585 C450.081813,97.889645 450.191185,98.053715 450.245875,98.217775 C450.409935,98.272463 450.573995,98.381835 450.738065,98.436525 C450.738065,98.217775 450.683377,98.053715 450.683377,97.834965 C450.683377,98.053715 450.738065,98.217775 450.738065,98.436525 C450.847435,98.491213 450.956815,98.545905 451.066185,98.600585 C450.956815,98.545898 450.847435,98.491215 450.738065,98.436525 C450.738065,98.600585 450.792752,98.709965 450.792752,98.874025 C450.792752,98.928713 450.792752,99.038085 450.847439,99.147465 C451.175569,99.639655 451.394319,99.967775 450.902127,99.530275 C450.902127,99.639655 450.956815,99.803715 450.956815,99.913085 C451.120875,100.350585 451.339625,100.788085 451.503685,101.280285 C451.339625,100.897475 451.175565,100.569345 450.956815,100.241185 C451.011502,100.569305 451.011502,100.842745 451.066185,101.170875 L451.066185,101.389625 C451.120873,101.663065 451.175565,101.991185 451.175565,102.264625 C451.120877,101.827125 451.011505,101.389625 450.956815,101.006825 C451.066185,103.303725 451.066185,105.600625 451.066185,107.842725 L451.066185,348.902725 C451.066185,360.058725 451.066185,371.214725 450.956815,382.371725 C450.956815,382.535785 450.902127,382.645165 450.902127,382.809225 C451.011507,382.317035 451.120877,381.824845 451.230247,381.332625 C451.230247,381.551375 451.17556,381.715435 451.17556,381.934185 C451.230247,381.715435 451.230247,381.551375 451.28493,381.332625 C451.17556,381.988875 451.12087,382.645125 451.01149,383.301425 C451.12087,383.137365 451.17555,382.973295 451.28493,382.809235 C451.39431,382.645175 451.44899,382.426425 451.50368,382.262355 C451.50368,382.317042 451.448993,382.371735 451.448993,382.371735 C451.448993,382.317047 451.50368,382.262355 451.50368,382.262355 C451.28493,382.699855 451.12087,383.137355 450.95681,383.629555 L450.95681,383.793615 L450.95681,383.957675 C450.79275,383.629545 450.902122,383.574865 450.902122,383.574865 L450.902,383.574 Z" id="Shape"></path>
        </g>
    </g>
</svg>