<?xml version="1.0" encoding="UTF-8"?>
<svg width="480px" height="480px" viewBox="0 0 480 480" version="1.1" xmlns="http://www.w3.org/2000/svg" xmlns:xlink="http://www.w3.org/1999/xlink">
    <!-- Generator: Sketch 52.6 (67491) - http://www.bohemiancoding.com/sketch -->
    <title>twitter</title>
    <desc>Created with Sketch.</desc>
    <g id="Page-1" stroke="none" stroke-width="1" fill="none" fill-rule="evenodd">
        <g id="twitter">
            <rect id="Rectangle" fill="#00AADE" transform="translate(240.000000, 240.000000) rotate(180.000000) translate(-240.000000, -240.000000) " x="0" y="0" width="480" height="480" rx="118"></rect>
            <path d="M354,156.22348 C368.466462,148.774286 379.293312,135.761319 384,120.165993 C372,132.185155 346.5,136.166503 346.5,136.166503 C328.311258,113.780872 296.802692,107.507449 271.448896,121.223667 C246.095099,134.939884 234.056991,164.771739 242.775,192.280967 L240,192.280967 C190.580438,188.998532 144.833323,164.997492 114,126.175574 C114,126.175574 78,174.252223 132,210.309711 C132,210.309711 108,210.309711 102,204.300129 C102,204.300129 96,240.357617 150,264.395941 C142.376763,267.873719 133.623237,267.873719 126,264.395941 C126,287.607949 150.15,306.46301 180,306.46301 C180,323.064478 139.725,336.510916 90,336.510916 C168,390.597146 354,378.577984 366,174.252223 L396,144.204317 L354,156.22348 Z" id="Path" fill="#FFFFFF"></path>
        </g>
    </g>
</svg>