<?xml version="1.0" encoding="UTF-8"?>
<svg width="28px" height="28px" viewBox="0 0 28 28" version="1.1" xmlns="http://www.w3.org/2000/svg" xmlns:xlink="http://www.w3.org/1999/xlink">
    <!-- Generator: Sketch 52.6 (67491) - http://www.bohemiancoding.com/sketch -->
    <title>Shape</title>
    <desc>Created with Sketch.</desc>
    <g id="Page-1" stroke="none" stroke-width="1" fill="none" fill-rule="evenodd">
        <g id="website" transform="translate(-1.000000, -1.000000)" fill="#000000" fill-rule="nonzero">
            <path d="M25.49,29 L4.5,29 C3.56348574,29.0309728 2.65680492,28.6683005 2,28 C1.336885,27.3479716 0.974652273,26.4496344 1,25.52 L1,4.5 C0.969027159,3.56348574 1.33169949,2.65680492 2,2 C2.65680492,1.33169949 3.56348574,0.969027159 4.5,1 L25.5,1 C26.4365143,0.969027159 27.3431951,1.33169949 28,2 C28.6683005,2.65680492 29.0309728,3.56348574 29,4.5 L29,25.5 C28.9890284,27.4323333 27.4223567,28.9945415 25.49,29 Z M15,6.21 C13.8484168,6.20351375 12.7079123,6.43501916 11.65,6.89 C10.6220515,7.32252499 9.68804267,7.95085817 8.9,8.74 C8.09660395,9.52670335 7.45161129,10.4602454 7,11.49 C6.10666667,13.634 6.10666667,16.046 7,18.19 C7.44918848,19.2211046 8.0944842,20.1550852 8.9,20.94 C9.69019568,21.7290539 10.6235064,22.3603113 11.65,22.8 C13.794,23.6933333 16.206,23.6933333 18.35,22.8 C19.3764936,22.3603113 20.3098043,21.7290539 21.1,20.94 C21.9055158,20.1550852 22.5508115,19.2211046 23,18.19 C23.8933333,16.046 23.8933333,13.634 23,11.49 C22.5483887,10.4602454 21.9033961,9.52670335 21.1,8.74 C20.3119573,7.95085817 19.3779485,7.32252499 18.35,6.89 C17.2920877,6.43501916 16.1515832,6.20351375 15,6.21 Z M8.5,11.21 L11.19,11.21 C10.9745006,11.791146 10.8105354,12.3901208 10.7,13 L7.81,13 C7.96736866,12.3778167 8.19903386,11.7768301 8.5,11.21 Z M8.5,18.47 C8.20009648,17.9202179 7.96838486,17.3359016 7.81,16.73 L10.7,16.73 C10.8167299,17.3221248 10.9805846,17.9039763 11.19,18.47 L8.5,18.47 Z M12.31,13.61 L11.49,16.09 L10.99,16.3 L10.47,14.61 L10,16.3 L9.49,16.09 L8.69,13.61 L9.2,13.39 L9.77,15.3 L10.22,14.07 L10.79,14.07 L11.23,15.3 L11.83,13.39 L12.31,13.61 Z M9.74,9.61 C10.7709832,8.5591348 12.095603,7.84453728 13.54,7.56 C12.6913359,8.42592144 12.0129028,9.44357101 11.54,10.56 L9,10.56 C9.21628273,10.2145776 9.46400112,9.8898657 9.74,9.59 L9.74,9.61 Z M9.74,20.12 C9.45067318,19.8358275 9.18946115,19.5243824 8.96,19.19 L11.47,19.19 C11.9665388,20.3105281 12.6686552,21.3280881 13.54,22.19 C12.0888614,21.8998213 10.7621618,21.1701365 9.74,20.1 L9.74,20.12 Z M11.46,13 C11.571509,12.4022989 11.7389108,11.8163925 11.96,11.25 L14.63,11.25 L14.63,13 L11.46,13 Z M14.63,18.51 L12,18.51 C11.77762,17.9474783 11.6101736,17.3647649 11.5,16.77 L14.67,16.77 L14.63,18.51 Z M14.63,22.18 C13.6424698,21.3557746 12.8385405,20.3338306 12.27,19.18 L14.63,19.18 L14.63,22.18 Z M14.63,7.58 L14.63,10.58 L12.3,10.58 C12.8519366,9.41268078 13.6462338,8.37634455 14.63,7.54 L14.63,7.58 Z M15,14.61 L14.49,16.3 L13.99,16.09 L13.16,13.61 L13.67,13.39 L14.27,15.3 L14.71,14.07 L15.29,14.07 L15.73,15.3 L16.3,13.39 L16.83,13.61 L16,16.09 L15.49,16.3 L15,14.61 Z M15.37,7.51 C16.3545874,8.33707963 17.1579926,9.35835741 17.73,10.51 L15.37,10.51 L15.37,7.51 Z M15.37,11.21 L18,11.21 C18.256331,11.7834773 18.4475263,12.3838977 18.57,13 L15.37,13 L15.37,11.21 Z M18.57,16.73 C18.4461264,17.3296131 18.254914,17.9133139 18,18.47 L15.37,18.47 L15.37,16.73 L18.57,16.73 Z M15.37,22.17 L15.37,19.17 L17.73,19.17 C17.1577492,20.3214887 16.3543806,21.3427201 15.37,22.17 Z M20.26,9.59 C20.5465124,9.86595563 20.8075685,10.1671743 21.04,10.49 L18.53,10.49 C18.0274461,9.37285195 17.3260499,8.35633577 16.46,7.49 C17.9103315,7.78840904 19.2356269,8.52080914 20.26,9.59 Z M20.26,20.1 C19.2258716,21.1371529 17.9004027,21.8347681 16.46,22.1 C17.3313448,21.2380881 18.0334612,20.2205281 18.53,19.1 L21,19.1 C20.7869287,19.4569306 20.5390539,19.7918966 20.26,20.1 Z M18.51,16.1 L17.69,13.62 L18.2,13.4 L18.8,15.31 L19.24,14.08 L19.81,14.08 L20.26,15.31 L20.83,13.4 L21.34,13.62 L20.54,16.1 L20,16.3 L19.5,14.61 L19,16.3 L18.51,16.1 Z M21.51,11.22 C21.8067706,11.784124 22.0350561,12.381695 22.19,13 L19.3,13 C19.1940051,12.4042239 19.0367542,11.818715 18.83,11.25 L21.51,11.22 Z M21.51,18.48 L18.83,18.48 C19.0330324,17.9135292 19.1902051,17.3316556 19.3,16.74 L22.19,16.74 C22.0308481,17.3424617 21.7991536,17.9233771 21.5,18.47 L21.51,18.48 Z" id="Shape"></path>
        </g>
    </g>
</svg>