<?xml version="1.0" ?><svg height="512px" id="Layer_1" style="enable-background:new 0 0 512 512;" version="1.1" viewBox="0 0 512 512" width="512px" xml:space="preserve" xmlns="http://www.w3.org/2000/svg" xmlns:cc="http://creativecommons.org/ns#" xmlns:dc="http://purl.org/dc/elements/1.1/" xmlns:inkscape="http://www.inkscape.org/namespaces/inkscape" xmlns:rdf="http://www.w3.org/1999/02/22-rdf-syntax-ns#" xmlns:sodipodi="http://sodipodi.sourceforge.net/DTD/sodipodi-0.dtd" xmlns:svg="http://www.w3.org/2000/svg"><defs id="defs19"/><g id="g3021"/><g id="Layer_1_1_"/><g id="Layer_1_1_-7" transform="translate(-819.672,-61.929991)"/><g id="g4507"><rect height="512" id="rect2989" rx="70" ry="70" style="fill:#cc181e;fill-opacity:1;stroke:none" transform="scale(-1,-1)" width="512" x="-512" y="-512"/><g id="g3294" transform="matrix(1.5421457,0,0,1.5421457,-138.7893,-138.78929)"><path d="m 332.30125,289.40599 c -2.41,0 -4.152,1.154 -4.793,3.115 -0.256,0.871 -0.564,-0.051 -0.564,6.088 v 10.664 h 10.434 v -10.664 c 0,-5.717 -0.334,-4.87 -0.59,-5.754 -0.667,-2.166 -2.333,-3.449 -4.487,-3.449 z m -50.295,3.68 c -2.23,0 -3.947,1.32 -4.588,3.486 -0.309,0.986 -0.643,2.936 -0.643,9.51 v 19.586 c 0,6.357 0.385,8.395 0.719,9.445 0.717,2.295 2.41,3.615 4.641,3.615 2.307,0 3.998,-1.371 4.689,-3.769 0.283,-1.063 0.643,-3.179 0.643,-10.101 v -18.777 c 0,-6.19 -0.438,-8.268 -0.744,-9.279 -0.744,-2.345 -2.461,-3.716 -4.717,-3.716 z m 86.029,-28.211 c -1.922,-17.56 -17.482,-31.89 -34.99,-33.121 -51.398,-2.192 -102.693,-2.192 -154.117,0 -17.457,1.23 -33.043,15.561 -34.965,33.121 -1.922,27.749 -1.922,55.037 0,82.8 1.922,17.547 17.508,31.89 34.965,33.12 51.424,2.205 102.718,2.179 154.117,0 17.508,-1.23 33.068,-15.573 34.99,-33.12 1.924,-27.763 1.924,-55.051 0,-82.8 z m -159.601,5.344 h -14.586 v 81.826 h -15.277 v -81.826 h -14.535 v -15.521 h 44.398 v 15.521 z m 42.145,81.929 h -14.639 l 0.205,-4.076 -4.563,-1.129 c -1.154,2.27 -2.563,3.961 -4.152,5.063 -1.564,1.052 -3.332,1.563 -5.383,1.563 -2.359,0 -4.334,-0.5 -5.82,-1.474 -1.537,-1.013 -2.641,-2.333 -3.357,-4.012 -0.82,-1.884 -1.334,-3.845 -1.512,-5.87 -0.232,-2.18 -0.334,-6.652 -0.334,-13.317 v -50.692 h 14.457 v 46.501 c 0,8.396 0.258,10.536 0.514,11.472 0.564,2.179 2.357,3.486 4.793,3.486 2.539,0 4.385,-1.359 4.896,-3.641 0.23,-0.948 0.461,-3.114 0.461,-11.906 v -45.912 h 14.434 v 73.944 z m 51.319,-53.435 v 38.656 c 0,-0.269 -0.309,4.179 -0.871,7.024 -0.539,2.524 -1.719,4.653 -3.641,6.536 -1.846,1.782 -4,2.641 -6.512,2.641 -1.82,0 -3.436,-0.512 -5.023,-1.563 -1.666,-1.103 -3.205,-2.833 -4.641,-5.14 l -3.205,-5.178 -1.178,6.023 -0.846,4.332 h -13.664 v -97.347 h 14.457 v 35.273 l 4.41,-6.806 c 1.385,-2.114 2.922,-3.704 4.537,-4.704 1.615,-1 3.281,-1.475 5.152,-1.475 2.205,0 4.127,0.462 5.691,1.334 1.537,0.871 2.666,2.063 3.461,3.602 0.871,1.705 1.41,3.346 1.563,4.935 0.875,8.011 0.31,11.998 0.31,11.857 z m 49.989,18.598 h -24.943 v 16.471 c 0,5.075 0.41,6.742 0.77,7.639 0.77,1.896 2.461,2.986 4.639,2.986 2.488,0 4.385,-1.307 5.205,-3.563 0.59,-1.629 0.896,-4.371 0.896,-8.602 v -7.934 h 13.434 v 3.436 c 0,4.64 -0.258,8.241 -0.719,10.664 -0.436,2.307 -1.486,4.818 -3.152,7.51 -1.59,2.539 -3.59,4.5 -5.998,5.742 -2.385,1.27 -5.537,1.91 -9.281,1.91 -3.691,0 -6.947,-0.653 -9.74,-1.922 -2.691,-1.27 -4.82,-2.986 -6.307,-5.152 -1.537,-2.282 -2.641,-4.807 -3.256,-7.537 -0.615,-2.858 -0.947,-7.139 -0.947,-10.062 v -22.687 c 0,-9.19 0.717,-14.344 2.102,-17.982 1.307,-3.486 3.408,-6.063 6.383,-7.883 2.973,-1.846 6.512,-2.781 10.434,-2.781 4.844,0 8.844,1.127 11.92,3.318 3.127,2.256 5.281,5.166 6.563,8.896 1.307,3.908 2,12.278 2,19.533 v 8 z" id="path3047" style="fill:#ffffff"/><g id="g3289"><path d="m 204.76825,168.55199 -12.125,-38.991 h -10.971 l 16.328,55.641 0.078,0.436 v 0.449 39.08 h 12.869 v -39.08 -0.462 l 0.102,-0.448 14.15,-55.615 h -10.998 c -3.228,14.688 -7.304,28.813 -9.433,38.99 z" id="path3051" style="fill:#ffffff"/><path d="m 264.08825,162.50199 c -1.463,-2.308 -3.615,-4.217 -6.436,-5.704 -2.845,-1.551 -6.408,-2.307 -10.509,-2.307 -4.82,0 -8.793,1.179 -11.793,3.5 -2.947,2.294 -4.922,5.204 -6.049,8.946 -1.205,3.974 -1.795,9.716 -1.795,17.034 v 13.395 c 0,6.78 0.334,11.895 1,15.15 0.615,3.05 1.666,5.665 3.076,7.78 1.385,2.051 3.385,3.615 5.973,4.666 2.82,1.115 6.307,1.705 10.408,1.705 3.641,0 6.844,-0.667 9.587,-1.987 2.641,-1.243 4.742,-3.115 6.383,-5.742 1.691,-2.641 2.793,-5.486 3.307,-8.498 0.539,-3.268 0.82,-8.6 0.82,-15.855 v -12.433 c 0,-5.588 -0.309,-9.729 -0.871,-12.356 -0.539,-2.449 -1.589,-4.91 -3.101,-7.294 z m -10.921,43.861 c 0,5.383 -0.41,7.293 -0.768,8.357 -0.795,2.23 -2.461,3.512 -4.615,3.512 -2.152,0 -3.82,-1.358 -4.613,-3.743 -0.359,-1.115 -0.795,-3.114 -0.795,-8.946 v -29.672 c 0,-6.28 0.41,-8.293 0.82,-9.434 0.795,-2.243 2.486,-3.524 4.639,-3.524 2.18,0 3.846,1.32 4.615,3.64 0.359,1.103 0.717,3.089 0.717,9.318 v 30.492 z" id="path3053" style="fill:#ffffff"/><path d="m 305.18025,154.65799 v 46.361 c 0,9.446 -0.256,9.203 -0.514,10.331 -0.281,1.269 -1.332,4.217 -5.023,4.217 -3.486,0 -4.588,-2.82 -4.896,-4.012 -0.281,-1.166 -0.59,-0.846 -0.59,-9.92 v -46.976 h -14.893 v 46.489 c 0,7.011 0.127,11.728 0.332,13.984 0.18,2.025 0.666,3.986 1.461,5.845 0.719,1.666 1.795,3.012 3.334,4.05 1.588,1.089 3.691,1.641 6.254,1.641 2.23,0 4.102,-0.564 5.768,-1.73 1.641,-1.154 3,-2.858 4.152,-5.217 l 4.615,1.872 -0.18,3.576 h 15.074 v -70.509 h -14.894 z" id="path3055" style="fill:#ffffff"/></g></g></g></svg>